<svg width="14" height="14" viewBox="0 0 14 14" fill="none" xmlns="http://www.w3.org/2000/svg">
<path d="M10.3615 8.58646C10.3615 9.19973 10.5357 9.4443 10.9915 9.4443C12.0072 9.4443 12.654 8.14841 12.654 5.99322C12.654 2.6991 10.2565 1.12213 7.26323 1.12213C4.18396 1.12213 1.38323 3.18972 1.38323 7.0971C1.38323 10.8293 3.83323 12.8618 7.59573 12.8618C8.87323 12.8618 9.73073 12.7216 11.0425 12.2836L11.324 13.4568C10.029 13.8781 8.645 14 7.57823 14C2.64323 14 0 11.2841 0 7.09637C0 2.87359 3.06323 0 7.28073 0C11.6732 0 14 2.62829 14 5.85231C14 8.58573 13.1432 10.6708 10.4482 10.6708C9.2225 10.6708 8.41823 10.1802 8.31323 9.09314C7.99823 10.3021 7.15823 10.6708 6.02 10.6708C4.4975 10.6708 3.22 9.49614 3.22 7.13141C3.22 4.74844 4.34073 3.2766 6.35323 3.2766C7.42073 3.2766 8.08573 3.69712 8.38177 4.36295L8.89 3.43429H10.36V8.58646H10.3615ZM8.20969 6.27357C8.20969 5.3106 7.49146 4.90686 6.89646 4.90686C6.24896 4.90686 5.53219 5.43179 5.53219 6.97445C5.53219 8.20098 6.07469 8.88433 6.89646 8.88433C7.47396 8.88433 8.20969 8.51637 8.20969 7.5001V6.27357Z" fill="#444A6C"/>
</svg>
