<svg width="10" height="13" viewBox="0 0 10 13" fill="none" xmlns="http://www.w3.org/2000/svg">
<path d="M5 0.5C5.34531 0.5 5.68708 0.567486 6.00586 0.698242C6.32457 0.828999 6.61394 1.02062 6.85742 1.26172C7.10092 1.5029 7.29425 1.78904 7.42578 2.10352C7.55731 2.41803 7.625 2.75556 7.625 3.0957V4.83301H8.75C8.9504 4.83301 9.14194 4.91189 9.28223 5.05078C9.42232 5.18954 9.49996 5.37714 9.5 5.57129V11.7617C9.5 11.9559 9.42232 12.1434 9.28223 12.2822C9.14193 12.4212 8.95045 12.5 8.75 12.5H1.25C1.04955 12.5 0.858066 12.4212 0.717773 12.2822C0.577676 12.1434 0.5 11.9559 0.5 11.7617V5.57129C0.500037 5.37714 0.577676 5.18954 0.717773 5.05078C0.822874 4.94672 0.956836 4.87641 1.10156 4.84766L1.25 4.83301H2.375V3.0957C2.375 2.40896 2.65082 1.7488 3.14258 1.26172C3.63448 0.774644 4.3024 0.5 5 0.5ZM5 6.92871C4.5376 6.92871 4.09316 7.11038 3.76465 7.43555C3.43594 7.76113 3.25 8.20447 3.25 8.66699C3.25009 9.1294 3.43602 9.57196 3.76465 9.89746C4.09317 10.2227 4.53752 10.4043 5 10.4043C5.46248 10.4043 5.90683 10.2227 6.23535 9.89746C6.56398 9.57196 6.74991 9.1294 6.75 8.66699C6.75 8.20447 6.56406 7.76113 6.23535 7.43555C5.90684 7.11038 5.4624 6.92871 5 6.92871ZM5 0.738281C4.37165 0.738281 3.76802 0.985244 3.32227 1.42676C2.87635 1.86843 2.625 2.469 2.625 3.0957V4.83301H7.375V3.0957C7.375 2.469 7.12365 1.86843 6.67773 1.42676C6.28774 1.04048 5.77687 0.803389 5.23438 0.75L5 0.738281Z" fill="#444A6C" stroke="black"/>
</svg>
