<svg width="20" height="12" viewBox="0 0 20 12" fill="none" xmlns="http://www.w3.org/2000/svg">
<path d="M10.6712 11.5H8.36719L7.51919 8.908H3.64719L2.79919 11.5H0.543188L4.27119 0.94H6.94319L10.6712 11.5ZM4.12719 7.292H7.03919L5.58319 2.668L4.12719 7.292ZM16.2789 6.38C16.2789 5.932 16.1563 5.58 15.9109 5.324C15.6763 5.05733 15.3509 4.924 14.9349 4.924C14.5296 4.924 14.1829 5.02533 13.8949 5.228C13.6069 5.43067 13.3989 5.772 13.2709 6.252L11.4149 5.692C11.5856 4.97733 11.9749 4.40667 12.5829 3.98C13.1909 3.55333 14.0123 3.34 15.0469 3.34C15.7509 3.34 16.3589 3.452 16.8709 3.676C17.3829 3.88933 17.7776 4.21467 18.0549 4.652C18.3429 5.08933 18.4869 5.63333 18.4869 6.284V9.532C18.4869 9.948 18.6736 10.156 19.0469 10.156C19.1323 10.156 19.2176 10.1507 19.3029 10.14C19.3989 10.1293 19.4789 10.1133 19.5429 10.092L19.4149 11.436C19.2869 11.5 19.1376 11.548 18.9669 11.58C18.7963 11.612 18.5989 11.628 18.3749 11.628C18.0123 11.628 17.6816 11.5693 17.3829 11.452C17.0949 11.324 16.8656 11.132 16.6949 10.876C16.5349 10.6093 16.4549 10.2733 16.4549 9.868V9.74L16.7589 9.676C16.7163 10.1133 16.5563 10.4813 16.2789 10.78C16.0016 11.0787 15.6603 11.3027 15.2549 11.452C14.8496 11.5907 14.4229 11.66 13.9749 11.66C13.2069 11.66 12.5776 11.4733 12.0869 11.1C11.6069 10.7267 11.3669 10.1827 11.3669 9.468C11.3669 8.90267 11.5429 8.428 11.8949 8.044C12.2469 7.66 12.7856 7.39333 13.5109 7.244L16.5189 6.604V7.9L14.6789 8.284C14.3163 8.35867 14.0389 8.47067 13.8469 8.62C13.6549 8.76933 13.5589 8.988 13.5589 9.276C13.5589 9.55333 13.6549 9.76667 13.8469 9.916C14.0496 10.0653 14.3056 10.14 14.6149 10.14C14.8283 10.14 15.0363 10.1133 15.2389 10.06C15.4416 9.996 15.6176 9.9 15.7669 9.772C15.9269 9.63333 16.0496 9.468 16.1349 9.276C16.2309 9.07333 16.2789 8.83333 16.2789 8.556V6.38Z" fill="#444A6C"/>
</svg>
